<svg class="logo" viewBox="0 0 47 15" version="1.1" xmlns="http://www.w3.org/2000/svg" xmlns:xlink="http://www.w3.org/1999/xlink">
  <g id="logo" transform="translate(-113.000000, -89.000000)">
      <path d="M24.96-4.80L24.96-4.80L24.96-4.80Q24.96-9.28 26.75-18.24L26.75-18.24L17.28-18.24L13.76 0L0.38 0L8.51-42.24L22.02-42.24L18.30-23.36L27.78-23.36L31.30-42.24L44.80-42.24L44.80-42.24Q43.90-37.50 42.75-32.19L42.75-32.19L40.58-21.76L40.58-21.76Q38.14-9.60 38.14-4.29L38.14-4.29L38.14-4.29Q38.14-2.11 38.85-0.90L38.85-0.90L38.85-0.90Q35.65 1.28 31.90 1.28L31.90 1.28L31.90 1.28Q28.16 1.28 26.56-0.51L26.56-0.51L26.56-0.51Q24.96-2.30 24.96-4.80ZM49.12-1.92L49.12-1.92L49.12-1.92Q47.62-3.58 46.94-6.21L46.94-6.21L46.94-6.21Q46.27-8.83 46.27-13.12L46.27-13.12L46.27-13.12Q46.27-17.41 47.74-21.31L47.74-21.31L47.74-21.31Q49.22-25.22 51.90-28.03L51.90-28.03L51.90-28.03Q57.41-33.92 66.50-33.92L66.50-33.92L66.50-33.92Q69.76-33.92 72.13-32.83L72.13-32.83L83.07-33.92L78.34-8.96L78.34-8.96Q78.14-8.19 78.14-6.78L78.14-6.78L78.14-6.78Q78.14-5.38 79.01-4.48L79.01-4.48L79.01-4.48Q79.87-3.58 81.15-3.46L81.15-3.46L81.15-3.46Q80.51-1.28 78.18 0L78.18 0L78.18 0Q75.84 1.28 73.22 1.28L73.22 1.28L73.22 1.28Q70.59 1.28 68.83 0.29L68.83 0.29L68.83 0.29Q67.07-0.70 66.56-2.37L66.56-2.37L66.56-2.37Q65.54-0.77 63.36 0.26L63.36 0.26L63.36 0.26Q61.18 1.28 58.27 1.28L58.27 1.28L58.27 1.28Q55.36 1.28 52.99 0.51L52.99 0.51L52.99 0.51Q50.62-0.26 49.12-1.92ZM62.62-27.90L62.62-27.90L62.62-27.90Q61.89-26.75 61.25-24.80L61.25-24.80L61.25-24.80Q60.61-22.85 59.55-17.63L59.55-17.63L59.55-17.63Q58.50-12.42 58.50-8.70L58.50-8.70L58.50-8.70Q58.50-4.99 59.07-3.90L59.07-3.90L59.07-3.90Q59.65-2.82 60.67-2.82L60.67-2.82L60.67-2.82Q62.72-2.82 64.22-4.77L64.22-4.77L64.22-4.77Q65.73-6.72 66.30-10.18L66.30-10.18L69.70-28.93L69.70-28.93Q68.35-30.08 66.78-30.08L66.78-30.08L66.78-30.08Q65.22-30.08 64.29-29.57L64.29-29.57L64.29-29.57Q63.36-29.06 62.62-27.90ZM113.60 1.28L113.60 1.28L113.60 1.28Q105.86 1.28 105.86-4.74L105.86-4.74L105.86-4.74Q105.92-6.40 106.43-9.22L106.43-9.22L107.58-15.10L107.58-15.10Q109.31-23.42 109.31-25.28L109.31-25.28L109.31-25.28Q109.31-28.99 107.14-28.99L107.14-28.99L107.14-28.99Q103.49-28.99 101.57-19.46L101.57-19.46L97.79 0L84.93 1.28L91.58-32.70L102.08-33.92L101.06-27.65L101.06-27.65Q104.06-33.92 113.28-33.92L113.28-33.92L113.28-33.92Q117.76-33.92 119.65-32.03L119.65-32.03L119.65-32.03Q121.54-30.14 121.54-25.92L121.54-25.92L121.54-25.92Q121.54-21.95 119.49-12.67L119.49-12.67L119.49-12.67Q118.53-8.51 118.53-6.94L118.53-6.94L118.53-6.94Q118.53-5.38 119.39-4.48L119.39-4.48L119.39-4.48Q120.26-3.58 121.54-3.46L121.54-3.46L121.54-3.46Q120.90-1.28 118.69 0L118.69 0L118.69 0Q116.48 1.28 113.60 1.28ZM153.73 1.28L153.73 1.28L153.73 1.28Q145.98 1.28 145.98-4.74L145.98-4.74L145.98-4.74Q146.05-6.40 146.56-9.22L146.56-9.22L147.71-15.10L147.71-15.10Q149.44-23.42 149.44-25.28L149.44-25.28L149.44-25.28Q149.44-28.99 147.26-28.99L147.26-28.99L147.26-28.99Q143.62-28.99 141.70-19.46L141.70-19.46L137.92 0L125.06 1.28L131.71-32.70L142.21-33.92L141.18-27.65L141.18-27.65Q144.19-33.92 153.41-33.92L153.41-33.92L153.41-33.92Q157.89-33.92 159.78-32.03L159.78-32.03L159.78-32.03Q161.66-30.14 161.66-25.92L161.66-25.92L161.66-25.92Q161.66-21.95 159.62-12.67L159.62-12.67L159.62-12.67Q158.66-8.51 158.66-6.94L158.66-6.94L158.66-6.94Q158.66-5.38 159.52-4.48L159.52-4.48L159.52-4.48Q160.38-3.58 161.66-3.46L161.66-3.46L161.66-3.46Q161.02-1.28 158.82 0L158.82 0L158.82 0Q156.61 1.28 153.73 1.28ZM169.57-1.92L169.57-1.92L169.57-1.92Q168.06-3.58 167.39-6.21L167.39-6.21L167.39-6.21Q166.72-8.83 166.72-13.12L166.72-13.12L166.72-13.12Q166.72-17.41 168.19-21.31L168.19-21.31L168.19-21.31Q169.66-25.22 172.35-28.03L172.35-28.03L172.35-28.03Q177.86-33.92 186.94-33.92L186.94-33.92L186.94-33.92Q190.21-33.92 192.58-32.83L192.58-32.83L203.52-33.92L198.78-8.96L198.78-8.96Q198.59-8.19 198.59-6.78L198.59-6.78L198.59-6.78Q198.59-5.38 199.46-4.48L199.46-4.48L199.46-4.48Q200.32-3.58 201.60-3.46L201.60-3.46L201.60-3.46Q200.96-1.28 198.62 0L198.62 0L198.62 0Q196.29 1.28 193.66 1.28L193.66 1.28L193.66 1.28Q191.04 1.28 189.28 0.29L189.28 0.29L189.28 0.29Q187.52-0.70 187.01-2.37L187.01-2.37L187.01-2.37Q185.98-0.77 183.81 0.26L183.81 0.26L183.81 0.26Q181.63 1.28 178.72 1.28L178.72 1.28L178.72 1.28Q175.81 1.28 173.44 0.51L173.44 0.51L173.44 0.51Q171.07-0.26 169.57-1.92ZM183.07-27.90L183.07-27.90L183.07-27.90Q182.34-26.75 181.70-24.80L181.70-24.80L181.70-24.80Q181.06-22.85 180-17.63L180-17.63L180-17.63Q178.94-12.42 178.94-8.70L178.94-8.70L178.94-8.70Q178.94-4.99 179.52-3.90L179.52-3.90L179.52-3.90Q180.10-2.82 181.12-2.82L181.12-2.82L181.12-2.82Q183.17-2.82 184.67-4.77L184.67-4.77L184.67-4.77Q186.18-6.72 186.75-10.18L186.75-10.18L190.14-28.93L190.14-28.93Q188.80-30.08 187.23-30.08L187.23-30.08L187.23-30.08Q185.66-30.08 184.74-29.57L184.74-29.57L184.74-29.57Q183.81-29.06 183.07-27.90ZM240.32-33.92L240.32-33.92L240.32-33.92Q242.62-33.92 244.42-33.41L244.42-33.41L244.42-33.41Q244.48-33.66 244.61-34.37L244.61-34.37L244.93-36.35L244.93-36.35Q245.18-37.63 245.57-39.74L245.57-39.74L246.59-44.80L259.33-46.08L252.22-8.96L252.22-8.96Q252.16-8.58 252.16-7.94L252.16-7.94L252.16-6.91L252.16-6.91Q252.16-5.50 252.86-4.45L252.86-4.45L252.86-4.45Q253.57-3.39 254.72-3.39L254.72-3.39L254.72-3.39Q253.44-0.38 249.54 0.90L249.54 0.90L249.54 0.90Q248.19 1.28 246.30 1.28L246.30 1.28L246.30 1.28Q244.42 1.28 242.69 0.29L242.69 0.29L242.69 0.29Q240.96-0.70 240.45-2.37L240.45-2.37L240.45-2.37Q239.42-0.70 237.38 0.29L237.38 0.29L237.38 0.29Q235.33 1.28 232.35 1.28L232.35 1.28L232.35 1.28Q229.38 1.28 226.91 0.51L226.91 0.51L226.91 0.51Q224.45-0.26 222.91-1.92L222.91-1.92L222.91-1.92Q220.10-5.18 220.10-12.61L220.10-12.61L220.10-12.61Q220.10-22.21 225.73-28.03L225.73-28.03L225.73-28.03Q231.36-33.92 240.32-33.92ZM239.87-30.08L239.87-30.08L239.87-30.08Q237.50-30.08 236.22-27.52L236.22-27.52L236.22-27.52Q234.94-24.96 233.63-18.62L233.63-18.62L233.63-18.62Q232.32-12.29 232.32-6.59L232.32-6.59L232.32-6.59Q232.32-2.69 234.62-2.69L234.62-2.69L234.62-2.69Q236.67-2.69 238.11-4.74L238.11-4.74L238.11-4.74Q239.55-6.78 240.13-10.18L240.13-10.18L243.58-28.93L243.58-28.93Q242.24-30.08 239.87-30.08ZM286.08-10.82L286.08-10.82L286.08-10.82Q287.68-9.73 287.68-7.33L287.68-7.33L287.68-7.33Q287.68-4.93 286.46-3.39L286.46-3.39L286.46-3.39Q285.25-1.86 283.26-0.83L283.26-0.83L283.26-0.83Q279.17 1.28 274.75 1.28L274.75 1.28L274.75 1.28Q270.34 1.28 267.74 0.32L267.74 0.32L267.74 0.32Q265.15-0.64 263.42-2.43L263.42-2.43L263.42-2.43Q260.03-5.82 260.03-12.03L260.03-12.03L260.03-12.03Q260.03-21.70 265.28-27.58L265.28-27.58L265.28-27.58Q270.91-33.92 280.70-33.92L280.70-33.92L280.70-33.92Q286.78-33.92 289.79-31.36L289.79-31.36L289.79-31.36Q292.03-29.44 292.03-26.30L292.03-26.30L292.03-26.30Q292.03-15.04 272.58-15.04L272.58-15.04L272.58-15.04Q272.32-13.38 272.32-11.97L272.32-11.97L272.32-11.97Q272.32-9.02 273.63-7.90L273.63-7.90L273.63-7.90Q274.94-6.78 277.38-6.78L277.38-6.78L277.38-6.78Q279.81-6.78 282.40-7.90L282.40-7.90L282.40-7.90Q284.99-9.02 286.08-10.82ZM273.02-17.79L273.02-17.79L273.02-17.79Q277.57-17.79 280.19-20.61L280.19-20.61L280.19-20.61Q282.82-23.30 282.82-27.58L282.82-27.58L282.82-27.58Q282.82-29.06 282.27-29.86L282.27-29.86L282.27-29.86Q281.73-30.66 280.64-30.66L280.64-30.66L280.64-30.66Q279.55-30.66 278.62-30.24L278.62-30.24L278.62-30.24Q277.70-29.82 276.74-28.42L276.74-28.42L276.74-28.42Q274.37-25.22 273.02-17.79ZM331.26-4.80L331.26-4.80L331.26-4.80Q331.26-9.28 333.06-18.24L333.06-18.24L323.58-18.24L320.06 0L306.69 0L314.82-42.24L328.32-42.24L324.61-23.36L334.08-23.36L337.60-42.24L351.10-42.24L351.10-42.24Q350.21-37.50 349.06-32.19L349.06-32.19L346.88-21.76L346.88-21.76Q344.45-9.60 344.45-4.29L344.45-4.29L344.45-4.29Q344.45-2.11 345.15-0.90L345.15-0.90L345.15-0.90Q341.95 1.28 338.21 1.28L338.21 1.28L338.21 1.28Q334.46 1.28 332.86-0.51L332.86-0.51L332.86-0.51Q331.26-2.30 331.26-4.80ZM355.42-1.92L355.42-1.92L355.42-1.92Q353.92-3.58 353.25-6.21L353.25-6.21L353.25-6.21Q352.58-8.83 352.58-13.12L352.58-13.12L352.58-13.12Q352.58-17.41 354.05-21.31L354.05-21.31L354.05-21.31Q355.52-25.22 358.21-28.03L358.21-28.03L358.21-28.03Q363.71-33.92 372.80-33.92L372.80-33.92L372.80-33.92Q376.06-33.92 378.43-32.83L378.43-32.83L389.38-33.92L384.64-8.96L384.64-8.96Q384.45-8.19 384.45-6.78L384.45-6.78L384.45-6.78Q384.45-5.38 385.31-4.48L385.31-4.48L385.31-4.48Q386.18-3.58 387.46-3.46L387.46-3.46L387.46-3.46Q386.82-1.28 384.48 0L384.48 0L384.48 0Q382.14 1.28 379.52 1.28L379.52 1.28L379.52 1.28Q376.90 1.28 375.14 0.29L375.14 0.29L375.14 0.29Q373.38-0.70 372.86-2.37L372.86-2.37L372.86-2.37Q371.84-0.77 369.66 0.26L369.66 0.26L369.66 0.26Q367.49 1.28 364.58 1.28L364.58 1.28L364.58 1.28Q361.66 1.28 359.30 0.51L359.30 0.51L359.30 0.51Q356.93-0.26 355.42-1.92ZM368.93-27.90L368.93-27.90L368.93-27.90Q368.19-26.75 367.55-24.80L367.55-24.80L367.55-24.80Q366.91-22.85 365.86-17.63L365.86-17.63L365.86-17.63Q364.80-12.42 364.80-8.70L364.80-8.70L364.80-8.70Q364.80-4.99 365.38-3.90L365.38-3.90L365.38-3.90Q365.95-2.82 366.98-2.82L366.98-2.82L366.98-2.82Q369.02-2.82 370.53-4.77L370.53-4.77L370.53-4.77Q372.03-6.72 372.61-10.18L372.61-10.18L376-28.93L376-28.93Q374.66-30.08 373.09-30.08L373.09-30.08L373.09-30.08Q371.52-30.08 370.59-29.57L370.59-29.57L370.59-29.57Q369.66-29.06 368.93-27.90ZM412.86-17.98L412.86-17.98L412.86-17.98Q415.17-22.08 415.17-26.24L415.17-26.24L415.17-26.24Q415.17-28.99 413.18-28.99L413.18-28.99L413.18-28.99Q411.65-28.99 410.05-26.37L410.05-26.37L410.05-26.37Q408.38-23.74 407.87-20.35L407.87-20.35L404.54 0L391.30 1.28L397.82-32.64L408.38-33.92L407.23-27.46L407.23-27.46Q410.37-33.92 417.41-33.92L417.41-33.92L417.41-33.92Q421.12-33.92 423.14-32L423.14-32L423.14-32Q425.15-30.08 425.15-26.14L425.15-26.14L425.15-26.14Q425.15-22.21 422.56-19.71L422.56-19.71L422.56-19.71Q419.97-17.22 415.55-17.22L415.55-17.22L415.55-17.22Q413.63-17.22 412.86-17.98ZM441.47-3.52L441.47-3.52L441.47-3.52Q439.49 1.28 433.15 1.28L433.15 1.28L433.15 1.28Q429.95 1.28 427.90-0.96L427.90-0.96L427.90-0.96Q426.24-2.82 426.24-4.93L426.24-4.93L426.24-4.93Q426.24-9.73 428.48-20.22L428.48-20.22L433.15-44.80L446.14-46.08L439.94-13.70L439.94-13.70Q438.85-8.96 438.85-7.30L438.85-7.30L438.85-7.30Q438.85-3.65 441.47-3.52ZM449.70-1.92L449.70-1.92L449.70-1.92Q448.19-3.58 447.52-6.21L447.52-6.21L447.52-6.21Q446.85-8.83 446.85-13.12L446.85-13.12L446.85-13.12Q446.85-17.41 448.32-21.31L448.32-21.31L448.32-21.31Q449.79-25.22 452.48-28.03L452.48-28.03L452.48-28.03Q457.98-33.92 467.07-33.92L467.07-33.92L467.07-33.92Q470.34-33.92 472.70-32.83L472.70-32.83L483.65-33.92L478.91-8.96L478.91-8.96Q478.72-8.19 478.72-6.78L478.72-6.78L478.72-6.78Q478.72-5.38 479.58-4.48L479.58-4.48L479.58-4.48Q480.45-3.58 481.73-3.46L481.73-3.46L481.73-3.46Q481.09-1.28 478.75 0L478.75 0L478.75 0Q476.42 1.28 473.79 1.28L473.79 1.28L473.79 1.28Q471.17 1.28 469.41 0.29L469.41 0.29L469.41 0.29Q467.65-0.70 467.14-2.37L467.14-2.37L467.14-2.37Q466.11-0.77 463.94 0.26L463.94 0.26L463.94 0.26Q461.76 1.28 458.85 1.28L458.85 1.28L458.85 1.28Q455.94 1.28 453.57 0.51L453.57 0.51L453.57 0.51Q451.20-0.26 449.70-1.92ZM463.20-27.90L463.20-27.90L463.20-27.90Q462.46-26.75 461.82-24.80L461.82-24.80L461.82-24.80Q461.18-22.85 460.13-17.63L460.13-17.63L460.13-17.63Q459.07-12.42 459.07-8.70L459.07-8.70L459.07-8.70Q459.07-4.99 459.65-3.90L459.65-3.90L459.65-3.90Q460.22-2.82 461.25-2.82L461.25-2.82L461.25-2.82Q463.30-2.82 464.80-4.77L464.80-4.77L464.80-4.77Q466.30-6.72 466.88-10.18L466.88-10.18L470.27-28.93L470.27-28.93Q468.93-30.08 467.36-30.08L467.36-30.08L467.36-30.08Q465.79-30.08 464.86-29.57L464.86-29.57L464.86-29.57Q463.94-29.06 463.20-27.90ZM514.18 1.28L514.18 1.28L514.18 1.28Q506.43 1.28 506.43-4.74L506.43-4.74L506.43-4.74Q506.50-6.40 507.01-9.22L507.01-9.22L508.16-15.10L508.16-15.10Q509.89-23.42 509.89-25.28L509.89-25.28L509.89-25.28Q509.89-28.99 507.71-28.99L507.71-28.99L507.71-28.99Q504.06-28.99 502.14-19.46L502.14-19.46L498.37 0L485.50 1.28L492.16-32.70L502.66-33.92L501.63-27.65L501.63-27.65Q504.64-33.92 513.86-33.92L513.86-33.92L513.86-33.92Q518.34-33.92 520.22-32.03L520.22-32.03L520.22-32.03Q522.11-30.14 522.11-25.92L522.11-25.92L522.11-25.92Q522.11-21.95 520.06-12.67L520.06-12.67L520.06-12.67Q519.10-8.51 519.10-6.94L519.10-6.94L519.10-6.94Q519.10-5.38 519.97-4.48L519.97-4.48L519.97-4.48Q520.83-3.58 522.11-3.46L522.11-3.46L522.11-3.46Q521.47-1.28 519.26 0L519.26 0L519.26 0Q517.06 1.28 514.18 1.28Z" id="Hannah"></path>
  </g>
</svg>
